<svg xmlns="http://www.w3.org/2000/svg"  viewBox="0 0 24 24" width="96px" height="96px"><path fill="#303C42" d="M9,4H4C2.8969727,4,2,4.8969727,2,6v5c0,1.1030273,0.8969727,2,2,2h5 c0.3604736,0,0.6942139-0.1033325,0.9865723-0.270813C9.8456421,16.206604,6.5465088,19,2.5,19C2.2236328,19,2,19.2236328,2,19.5 S2.2236328,20,2.5,20c4.6870117,0,8.5-3.3642578,8.5-7.5V6C11,4.8969727,10.1030273,4,9,4z"/><path fill="#303C42" d="M20,4h-5c-1.1030273,0-2,0.8969727-2,2v5c0,1.1030273,0.8969727,2,2,2h5 c0.3604736,0,0.6942139-0.1033325,0.9865723-0.270813C20.8456421,16.206604,17.5465088,19,13.5,19 c-0.2763672,0-0.5,0.2236328-0.5,0.5s0.2236328,0.5,0.5,0.5c4.6870117,0,8.5-3.3642578,8.5-7.5V6C22,4.8969727,21.1030273,4,20,4z"/><linearGradient id="VxBLR8wc-tSF4OychzpXya" x1="1.214" x2="20.869" y1="7.243" y2="16.408" gradientUnits="userSpaceOnUse"><stop offset="0" stop-color="#fff" stop-opacity=".2"/><stop offset="1" stop-color="#fff" stop-opacity="0"/></linearGradient><path fill="url(#VxBLR8wc-tSF4OychzpXya)" d="M9,4H4C2.8969727,4,2,4.8969727,2,6v5c0,1.1030273,0.8969727,2,2,2h5 c0.3604736,0,0.6942139-0.1033325,0.9865723-0.270813C9.8456421,16.206604,6.5465088,19,2.5,19C2.2236328,19,2,19.2236328,2,19.5 S2.2236328,20,2.5,20c4.6870117,0,8.5-3.3642578,8.5-7.5V6C11,4.8969727,10.1030273,4,9,4z M20,4h-5c-1.1030273,0-2,0.8969727-2,2 v5c0,1.1030273,0.8969727,2,2,2h5c0.3604736,0,0.6942139-0.1033325,0.9865723-0.270813C20.8456421,16.206604,17.5465088,19,13.5,19 c-0.2763672,0-0.5,0.2236328-0.5,0.5s0.2236328,0.5,0.5,0.5c4.6870117,0,8.5-3.3642578,8.5-7.5V6C22,4.8969727,21.1030273,4,20,4z"/></svg>